<svg width="50" height="50" viewBox="0 0 50 50" fill="none" xmlns="http://www.w3.org/2000/svg">
<rect width="50" height="50" rx="5" fill="#3374DE"/>
<path fill-rule="evenodd" clip-rule="evenodd" d="M33.75 23.125C32.7145 23.125 31.875 23.9645 31.875 25C31.875 26.0355 32.7145 26.875 33.75 26.875C34.7855 26.875 35.625 26.0355 35.625 25C35.625 23.9645 34.7855 23.125 33.75 23.125ZM29.375 25C29.375 22.5838 31.3338 20.625 33.75 20.625C36.1662 20.625 38.125 22.5838 38.125 25C38.125 27.4162 36.1662 29.375 33.75 29.375C31.3338 29.375 29.375 27.4162 29.375 25Z" fill="white"/>
<path fill-rule="evenodd" clip-rule="evenodd" d="M25 14.375C24.6548 14.375 24.375 14.6548 24.375 15C24.375 15.3452 24.6548 15.625 25 15.625C25.3452 15.625 25.625 15.3452 25.625 15C25.625 14.6548 25.3452 14.375 25 14.375ZM21.875 15C21.875 13.2741 23.2742 11.875 25 11.875C26.7258 11.875 28.125 13.2741 28.125 15C28.125 16.7259 26.7258 18.125 25 18.125C23.2742 18.125 21.875 16.7259 21.875 15Z" fill="white"/>
<path fill-rule="evenodd" clip-rule="evenodd" d="M23.125 23.75C22.7799 23.75 22.5 24.0299 22.5 24.375C22.5 24.7201 22.7799 25 23.125 25C23.4701 25 23.75 24.7201 23.75 24.375C23.75 24.0299 23.4701 23.75 23.125 23.75ZM20 24.375C20 22.6491 21.3991 21.25 23.125 21.25C24.8509 21.25 26.25 22.6491 26.25 24.375C26.25 26.1009 24.8509 27.5 23.125 27.5C21.3991 27.5 20 26.1009 20 24.375Z" fill="white"/>
<path fill-rule="evenodd" clip-rule="evenodd" d="M15.625 18.125C14.9346 18.125 14.375 18.6846 14.375 19.375C14.375 20.0654 14.9346 20.625 15.625 20.625C16.3154 20.625 16.875 20.0654 16.875 19.375C16.875 18.6846 16.3154 18.125 15.625 18.125ZM11.875 19.375C11.875 17.3039 13.5539 15.625 15.625 15.625C17.6961 15.625 19.375 17.3039 19.375 19.375C19.375 21.4461 17.6961 23.125 15.625 23.125C13.5539 23.125 11.875 21.4461 11.875 19.375Z" fill="white"/>
<path fill-rule="evenodd" clip-rule="evenodd" d="M20.625 33.125C19.9346 33.125 19.375 33.6846 19.375 34.375C19.375 35.0654 19.9346 35.625 20.625 35.625C21.3154 35.625 21.875 35.0654 21.875 34.375C21.875 33.6846 21.3154 33.125 20.625 33.125ZM16.875 34.375C16.875 32.3039 18.5539 30.625 20.625 30.625C22.6961 30.625 24.375 32.3039 24.375 34.375C24.375 36.4461 22.6961 38.125 20.625 38.125C18.5539 38.125 16.875 36.4461 16.875 34.375Z" fill="white"/>
<path fill-rule="evenodd" clip-rule="evenodd" d="M24.1016 15.474C24.2595 15.7809 24.1387 16.1577 23.8318 16.3157L18.0423 19.2945C17.7353 19.4524 17.3585 19.3316 17.2006 19.0247L16.9146 18.4689C16.7567 18.162 16.8775 17.7852 17.1844 17.6272L22.974 14.6484C23.2809 14.4905 23.6577 14.6113 23.8157 14.9182L24.1016 15.474ZM26.5334 15.3227C26.8029 15.1071 27.1962 15.1508 27.4118 15.4203L32.8023 22.1584C33.0179 22.4279 32.9742 22.8212 32.7047 23.0368L32.2166 23.4273C31.9471 23.6429 31.5538 23.5992 31.3382 23.3297L25.9477 16.5916C25.7321 16.3221 25.7758 15.9288 26.0453 15.7132L26.5334 15.3227ZM16.2134 20.8875C16.5366 20.7663 16.8969 20.93 17.0181 21.2532L20.9875 31.8384C21.1087 32.1616 20.945 32.5219 20.6218 32.6431L20.0366 32.8625C19.7134 32.9837 19.3531 32.82 19.2319 32.4968L15.2625 21.9116C15.1413 21.5884 15.305 21.2281 15.6282 21.1069L16.2134 20.8875ZM24.7177 23.9833C24.7473 23.6394 25.05 23.3846 25.3939 23.4142L31.0229 23.8981C31.3668 23.9277 31.6216 24.2304 31.5921 24.5743L31.5385 25.197C31.509 25.5409 31.2062 25.7958 30.8623 25.7662L25.2333 25.2823C24.8894 25.2527 24.6346 24.95 24.6642 24.6061L24.7177 23.9833ZM29.0625 29.0625C29.2696 29.3386 29.2136 29.7304 28.9375 29.9375L23.4375 34.0625C23.1614 34.2696 22.7696 34.2136 22.5625 33.9375L22.1875 33.4375C21.9804 33.1614 22.0364 32.7696 22.3125 32.5625L27.8125 28.4375C28.0886 28.2304 28.4804 28.2864 28.6875 28.5625L29.0625 29.0625Z" fill="white"/>
<path fill-rule="evenodd" clip-rule="evenodd" d="M24.8911 16.2725C25.3965 16.3848 25.7152 16.8856 25.6029 17.3911L24.3529 23.0161C24.2406 23.5215 23.7398 23.8402 23.2343 23.7279C22.7289 23.6156 22.4102 23.1148 22.5225 22.6093L23.7725 16.9843C23.8848 16.4789 24.3856 16.1602 24.8911 16.2725Z" fill="white"/>
</svg>
