<svg width="50" height="50" viewBox="0 0 50 50" fill="none" xmlns="http://www.w3.org/2000/svg">
<rect width="50" height="50" rx="5" fill="#3374DE"/>
<path fill-rule="evenodd" clip-rule="evenodd" d="M30.0422 11.6161C30.5303 12.1042 30.5304 12.8957 30.0422 13.3839C29.744 13.6821 29.6203 13.8123 29.5323 14.1726C29.4203 14.6315 29.3741 15.5127 29.6738 17.2924C29.7885 17.9731 29.3296 18.618 28.6488 18.7326C27.968 18.8473 27.3232 18.3884 27.2085 17.7076C26.8911 15.8227 26.8697 14.5376 27.1037 13.5795C27.3598 12.5307 27.8972 11.9933 28.2661 11.6244L28.2744 11.6161C28.7625 11.128 29.554 11.1279 30.0422 11.6161ZM21.956 21.526C21.8404 21.5878 21.788 21.6397 21.7099 21.7178C21.6318 21.7959 21.58 21.8482 21.5182 21.9638C21.4507 22.0899 21.3462 22.3441 21.2843 22.8184C21.1671 23.7173 21.2132 25.3225 21.8622 28.1308C24.6705 28.7798 26.2754 28.8256 27.174 28.7083C27.6481 28.6463 27.9021 28.5418 28.0282 28.4743C28.1437 28.4125 28.1961 28.3606 28.2744 28.2822C28.3528 28.2039 28.4047 28.1516 28.4665 28.036C28.534 27.91 28.6385 27.6559 28.7005 27.1818C28.8178 26.2832 28.772 24.6783 28.123 21.8701C25.3147 21.221 23.7095 21.1749 22.8106 21.2922C22.3363 21.354 22.0821 21.4585 21.956 21.526ZM30.8153 22.5024C31.2673 24.7981 31.3263 26.3811 31.1794 27.5056C31.0849 28.2292 30.9027 28.7822 30.6706 29.2158C30.4336 29.6586 30.1738 29.9185 30.0434 30.0488L30.041 30.0512C29.9106 30.1816 29.6508 30.4414 29.208 30.6784C28.7744 30.9106 28.2214 31.0927 27.4978 31.1872C26.0764 31.3729 23.9226 31.2296 20.5229 30.3797C17.2073 29.5508 15.5068 29.3903 14.5846 29.474C14.1542 29.513 13.9413 29.602 13.8232 29.6688C13.6905 29.7437 13.591 29.8351 13.376 30.05C12.8879 30.5382 12.0964 30.5382 11.6083 30.05C11.1201 29.5618 11.1202 28.7704 11.6083 28.2822C11.6155 28.2751 11.6228 28.2678 11.6302 28.2603C11.8327 28.0576 12.1438 27.7461 12.5937 27.492C13.0746 27.2203 13.6432 27.0491 14.3588 26.9842C15.4386 26.8863 16.9409 27.025 19.1699 27.4985C18.7179 25.2027 18.6587 23.6197 18.8053 22.4951C18.8997 21.7715 19.0817 21.2184 19.3137 20.7847C19.5508 20.3414 19.8108 20.0814 19.9413 19.9509L19.9431 19.9491C20.0736 19.8186 20.3336 19.5586 20.7768 19.3215C21.2106 19.0895 21.7637 18.9075 22.4873 18.8132C23.9087 18.6277 26.0626 18.7713 29.4624 19.6212C32.778 20.4501 34.4781 20.6103 35.3999 20.5265C35.8301 20.4874 36.0429 20.3984 36.161 20.3316C36.2937 20.2566 36.3931 20.1652 36.6083 19.95C37.0964 19.4619 37.8879 19.4618 38.376 19.95C38.8642 20.4381 38.8642 21.2296 38.3761 21.7177C38.3689 21.725 38.3615 21.7324 38.354 21.7399C38.1516 21.9425 37.8407 22.2539 37.3912 22.508C36.9104 22.7798 36.3419 22.9512 35.6263 23.0162C34.5465 23.1144 33.0443 22.9758 30.8153 22.5024ZM21.3362 31.2674C22.017 31.1527 22.6618 31.6116 22.7764 32.2924C23.0939 34.1776 23.1151 35.4628 22.8809 36.4209C22.6247 37.4692 22.0875 38.0064 21.7188 38.375L21.71 38.3839C21.2218 38.872 20.4304 38.872 19.9422 38.3839C19.454 37.8958 19.454 37.1043 19.9422 36.6161C20.2408 36.3175 20.3644 36.1875 20.4524 35.8273C20.5645 35.3686 20.6109 34.4875 20.3111 32.7076C20.1965 32.0268 20.6554 31.382 21.3362 31.2674Z" fill="white"/>
</svg>
