<svg width="50" height="50" viewBox="0 0 50 50" fill="none" xmlns="http://www.w3.org/2000/svg">
<rect width="50" height="50" rx="5" fill="#3374DE"/>
<path fill-rule="evenodd" clip-rule="evenodd" d="M15.4485 20H14.8235C14.4784 20 14.1985 19.7202 14.1985 19.375V18.125C14.1985 17.7798 14.4784 17.5 14.8235 17.5H27.9485C28.2937 17.5 28.5735 17.7798 28.5735 18.125V19.375C28.5735 19.7202 28.2937 20 27.9485 20H27.3235V22.5858L30.6774 31.5294L32.1829 35.3291C32.8332 36.9701 31.6239 38.75 29.8587 38.75H13.1348C11.4201 38.75 10.2144 37.0632 10.7694 35.4408L12.2405 31.1407L15.4485 22.5858L15.4485 20ZM17.9485 20V23.0392L14.9114 31.1383C15.3724 31.4242 15.9756 31.686 16.6585 31.7868C17.6679 31.9359 18.9203 31.747 20.2661 30.6083C22.2226 28.9527 24.3659 28.6837 26.1962 29.0295C26.5286 29.0923 26.8511 29.1753 27.1614 29.2735L24.8235 23.0392V20H17.9485ZM28.4666 32.7365C27.843 32.2495 26.8518 31.6976 25.7321 31.4861C24.5207 31.2572 23.1745 31.4223 21.881 32.5167C19.9768 34.128 18 34.512 16.2933 34.26C15.4578 34.1367 14.7039 33.8641 14.0649 33.5311L13.1348 36.25L29.8587 36.25L28.4666 32.7365Z" fill="white"/>
<path d="M27.5078 11.25C26.4344 11.25 25.6664 11.7924 25.2177 12.2411C25.1082 12.3506 25.0125 12.4594 24.9302 12.5615C24.9012 12.5659 24.8716 12.5706 24.8414 12.5756C24.4079 12.6478 23.8109 12.7946 23.1988 13.1007C22.5818 13.4092 21.9267 13.8916 21.4287 14.6387C20.9255 15.3935 20.6328 16.3438 20.6328 17.5C20.6328 18.1904 21.1925 18.75 21.8828 18.75C22.5732 18.75 23.1328 18.1904 23.1328 17.5C23.1328 16.7812 23.3089 16.3253 23.5088 16.0254C23.7139 15.7177 23.9964 15.497 24.3168 15.3368C24.6422 15.1741 24.9827 15.0865 25.2524 15.0416C25.3843 15.0196 25.4914 15.0091 25.5607 15.0041C25.5952 15.0017 25.6196 15.0006 25.6323 15.0002L25.6416 15C26.1065 14.9967 26.5311 14.7357 26.7439 14.3227L26.7474 14.3165C26.7543 14.3043 26.7686 14.2802 26.7901 14.2481C26.8343 14.1817 26.9007 14.0936 26.9854 14.0089C27.1617 13.8326 27.3313 13.75 27.5078 13.75C27.9672 13.75 28.205 13.8576 28.3203 13.9603C28.408 14.0384 28.6077 14.2741 28.6077 15C28.6077 15.6904 29.1673 16.25 29.8577 16.25C31.6389 16.25 33.1328 17.9971 33.1328 20C33.1328 20.6904 33.6925 21.25 34.3828 21.25C35.3372 21.25 35.9216 21.5606 36.2759 21.9452C36.6456 22.3466 36.8828 22.9589 36.8828 23.75C36.8828 25.0337 35.7172 26.25 34.0533 26.25C32.3895 26.25 31.2238 25.0337 31.2238 23.75C31.2238 23.39 31.0686 23.0475 30.798 22.8102C30.5273 22.5728 30.1675 22.4637 29.8106 22.5107C29.3696 22.5688 28.4946 22.2607 27.6111 21.3944C26.7593 20.5591 26.2578 19.5445 26.2578 18.75C26.2578 18.0596 25.6982 17.5 25.0078 17.5C24.3175 17.5 23.7578 18.0596 23.7578 18.75C23.7578 19.1743 23.8181 19.5931 23.9262 20H25.0078V22.1951C25.2709 22.5541 25.5604 22.8849 25.8608 23.1794C26.6618 23.9649 27.736 24.6793 28.8697 24.9264C29.4413 27.1764 31.617 28.75 34.0533 28.75C36.8955 28.75 39.3828 26.6085 39.3828 23.75C39.3828 22.4701 38.9951 21.2073 38.1148 20.2515C37.4501 19.5299 36.5682 19.0525 35.5259 18.8542C35.1023 16.5658 33.4437 14.3871 30.9886 13.8669C30.8276 13.158 30.4997 12.5533 29.9827 12.093C29.2356 11.4279 28.2984 11.25 27.5078 11.25Z" fill="white"/>
</svg>
