<svg width="50" height="50" viewBox="0 0 50 50" fill="none" xmlns="http://www.w3.org/2000/svg">
<rect width="50" height="50" rx="5" fill="#3374DE"/>
<path d="M14.3937 13.7939L14.4606 13.7946L14.5275 13.7977L21.5081 14.1646C22.1753 14.1991 22.8288 14.3665 23.4303 14.6572C24.0317 14.9478 24.5691 15.3558 25.0106 15.8571C25.8522 14.9101 27.0227 14.319 28.2844 14.2039L28.4812 14.1896L35.5263 13.8196L35.6188 13.8177C36.2602 13.8177 36.877 14.0642 37.3418 14.5063C37.8065 14.9483 38.0836 15.5521 38.1156 16.1927L38.1187 16.3177V32.5689L38.1156 32.6821C38.0903 33.1017 37.9247 33.5006 37.6454 33.8148C37.3661 34.129 36.9894 34.3402 36.5756 34.4146L36.4631 34.4308L28.6875 35.3496L28.5181 35.3727C27.5678 35.529 26.7134 36.0434 26.1306 36.8102L25.9675 37.0339C25.4137 37.7321 24.3988 37.6002 23.9581 36.9602L23.9425 36.9714C23.657 36.5557 23.2904 36.2021 22.8648 35.9316C22.4391 35.6612 21.9632 35.4796 21.4656 35.3977L21.2969 35.3739L13.5319 34.4571C13.0857 34.4044 12.6724 34.1963 12.3643 33.8694C12.0562 33.5424 11.873 33.1174 11.8469 32.6689L11.8438 32.5583L11.8438 16.3439C11.8438 15.6676 12.1124 15.019 12.5906 14.5408C13.0688 14.0626 13.7174 13.7939 14.3937 13.7939ZM35.6188 16.3177L28.6125 16.6864L28.485 16.6964C27.9191 16.7553 27.3901 17.0054 26.9856 17.4056C26.581 17.8057 26.3251 18.3318 26.26 18.8971C26.2631 18.9408 26.265 18.9833 26.2663 19.0264L26.2688 19.1827V23.1252L26.2431 23.1246L26.2438 27.6089C26.2438 28.0377 25.9175 28.3908 25.5 28.4333L25.415 28.4377H24.5725C24.3673 28.4378 24.1694 28.3619 24.017 28.2245C23.8646 28.0871 23.7685 27.898 23.7475 27.6939L23.7438 27.6089L23.7431 23.1246H23.7188V19.1833C23.7186 18.5714 23.4918 17.9811 23.0821 17.5266C22.6723 17.072 22.1087 16.7854 21.5 16.7221L21.3738 16.7121L14.3937 16.3439L14.3937 31.9914L21.5963 32.8421C22.8633 32.9916 24.055 33.5228 25.0131 34.3652C25.906 33.5869 27.0013 33.0779 28.1719 32.8971L28.3944 32.8671L35.6188 32.0139V16.3177Z" fill="white"/>
</svg>