<svg width="50" height="50" viewBox="0 0 50 50" fill="none" xmlns="http://www.w3.org/2000/svg">
<rect width="50" height="50" rx="5" fill="#3374DE"/>
<path d="M36.2422 25C36.2422 18.7868 31.2054 13.75 24.9922 13.75C18.779 13.75 13.7422 18.7868 13.7422 25C13.7422 31.2132 18.779 36.25 24.9922 36.25C31.2054 36.25 36.2422 31.2132 36.2422 25ZM38.7422 25C38.7422 32.5939 32.5861 38.75 24.9922 38.75C17.3983 38.75 11.2422 32.5939 11.2422 25C11.2422 17.4061 17.3983 11.25 24.9922 11.25C32.5861 11.25 38.7422 17.4061 38.7422 25Z" fill="white"/>
<path d="M18.0726 13.2053C20.5831 12.9693 22.6263 13.0185 24.0651 13.4787C24.7986 13.7134 25.4832 14.089 25.9608 14.6939C26.4624 15.3292 26.6321 16.086 26.5516 16.8564C26.4475 17.8524 26.0722 18.6384 25.373 19.1611C24.7598 19.6193 24.029 19.7562 23.5927 19.8416C23.0592 19.946 22.7799 20.0007 22.5483 20.1242C22.3969 20.205 22.2298 20.3346 22.093 20.7236C21.8338 21.4611 22.1193 21.9752 22.6545 22.8915C22.7756 23.0987 22.9235 23.3557 23.0391 23.6221C23.1549 23.8891 23.2742 24.2439 23.2789 24.6512C23.2904 25.6344 22.6655 26.307 21.9032 26.7471C21.0956 27.2134 20.2631 27.2491 19.5051 26.9656C18.8247 26.7112 18.2786 26.2278 17.8676 25.8017C17.455 25.374 17.0486 24.8601 16.7366 24.487C16.3841 24.0655 16.1392 23.8077 15.9486 23.6722C15.6491 23.4594 14.8552 23.2917 13.0256 24.1556L11.9587 21.8948C13.8972 20.9795 15.8905 20.5641 17.397 21.6348C17.8836 21.9808 18.3149 22.4778 18.6543 22.8836C19.0341 23.3377 19.3363 23.7232 19.6669 24.0659C19.9989 24.4101 20.2305 24.5681 20.381 24.6243C20.4538 24.6516 20.5055 24.6675 20.6532 24.5822C20.6747 24.5698 20.6932 24.5569 20.7106 24.5462C20.6618 24.4458 20.5946 24.3218 20.4957 24.1525C20.0519 23.3926 19.0389 21.8729 19.7346 19.8941C20.0754 18.9248 20.6581 18.299 21.3716 17.9184C22.0048 17.5806 22.7063 17.4676 23.1129 17.388C23.6167 17.2894 23.7859 17.2262 23.8765 17.1585C23.8811 17.155 24.0136 17.0886 24.0651 16.597C24.0882 16.3756 24.0389 16.2934 23.9991 16.243C23.9354 16.1622 23.7561 16.0051 23.3033 15.8603C22.3691 15.5615 20.7491 15.4646 18.3064 15.6943L18.0726 13.2053Z" fill="white"/>
<path d="M29.6435 31.5131C29.6438 31.5079 29.6563 31.4376 29.4586 31.2195C29.22 30.9563 28.9243 30.7323 28.4283 30.304C27.5198 29.5193 26.3272 28.3416 26.1487 26.2732C26.0444 25.0658 26.5107 24.1114 27.3224 23.4766C28.0531 22.9051 28.9822 22.6532 29.7815 22.5305C31.0137 22.3414 32.4495 22.41 33.1476 22.4475C33.1508 22.4172 33.1535 22.3842 33.153 22.3486C33.1509 22.1977 33.109 22.0881 33.0645 22.0264C33.0349 21.9853 32.9708 21.9132 32.7752 21.8738C32.1318 21.7444 31.7622 21.8821 31.0846 22.0691C30.7509 22.1612 30.2936 22.2749 29.765 22.251C29.211 22.2259 28.6657 22.056 28.106 21.7194C27.8069 21.5394 27.5305 21.2796 27.3456 20.9229C27.161 20.5667 27.108 20.1923 27.1313 19.8468C27.1747 19.2044 27.4852 18.5903 27.8363 18.0603C28.5582 16.9706 29.8712 15.6285 31.6699 14.0582L33.3142 15.9418C31.5415 17.4893 30.4454 18.6479 29.92 19.4409C29.8436 19.5563 29.787 19.653 29.7448 19.7321C29.7998 19.7459 29.8433 19.7518 29.8785 19.7534C29.994 19.7586 30.1342 19.7376 30.4199 19.6588C30.9814 19.5039 31.9405 19.1557 33.2678 19.4226L33.4137 19.4556C34.1342 19.6336 34.705 20.0277 35.0915 20.5634C35.4889 21.114 35.6451 21.7469 35.653 22.3132C35.6609 22.8715 35.5266 23.4546 35.2343 23.9386C34.9491 24.4109 34.3843 24.9658 33.529 24.9658C32.7994 24.9658 31.4793 24.7989 30.1611 25.0012C29.5227 25.0992 29.0951 25.2641 28.8629 25.4456C28.7117 25.5638 28.6085 25.6992 28.6395 26.0583C28.7314 27.123 29.2886 27.7437 30.0622 28.4119C30.4073 28.7099 30.9357 29.1264 31.311 29.5404C31.7254 29.9975 32.1435 30.6421 32.1435 31.5131C32.1435 32.3258 31.9015 33.2351 31.5185 34.1925C31.1291 35.166 30.5589 36.2742 29.8248 37.5098L27.6758 36.2329C28.3705 35.0635 28.8723 34.076 29.1974 33.2635C29.5288 32.435 29.6435 31.8673 29.6435 31.5131Z" fill="white"/>
<path d="M14.6241 28.8736C17.061 27.8891 19.2803 27.4657 20.9492 28.2022C21.6423 28.5081 22.1626 28.9248 22.5319 29.4333C22.8951 29.9334 23.0611 30.4523 23.1526 30.881C23.1977 31.0926 23.2268 31.2929 23.249 31.456C23.2733 31.6344 23.2872 31.7476 23.3064 31.8588C23.3111 31.8859 23.3163 31.9089 23.3204 31.9284C23.35 31.9428 23.3904 31.9611 23.4443 31.9827C23.5349 32.0189 23.6335 32.0537 23.7654 32.0999C23.8873 32.1426 24.0413 32.1964 24.1945 32.2586C24.4875 32.3775 24.9139 32.5774 25.2632 32.9526C25.653 33.3712 25.8594 33.9103 25.8595 34.5273C25.8595 35.6582 25.4829 36.8322 24.8494 38.0197L22.6436 36.8429C23.1344 35.9228 23.3354 35.1897 23.3552 34.6194C23.329 34.6069 23.296 34.5917 23.2545 34.5749C23.1663 34.5391 23.0686 34.5043 22.939 34.4589C22.8194 34.417 22.6663 34.3643 22.5154 34.3039C22.2273 34.1886 21.8014 33.9931 21.4509 33.6258C21.0146 33.1682 20.8973 32.5989 20.843 32.2848C20.8136 32.115 20.7899 31.9271 20.7716 31.7929C20.7512 31.6432 20.7324 31.5188 20.7075 31.4023C20.659 31.1747 20.5965 31.0226 20.5092 30.9024C20.4279 30.7905 20.2754 30.6373 19.9397 30.4892C19.3224 30.2169 18.0982 30.2303 15.9932 31.0226L15.5604 31.1917C15.2901 31.3009 14.8745 31.4771 14.3074 31.7245L13.3076 29.4333C13.8797 29.1837 14.321 28.9961 14.6241 28.8736Z" fill="white"/>
</svg>
