<svg width="50" height="50" viewBox="0 0 50 50" fill="none" xmlns="http://www.w3.org/2000/svg">
<rect width="50" height="50" rx="5" fill="#3374DE"/>
<path d="M34.7429 12.1973C34.9565 12.1574 35.1773 12.1837 35.3753 12.2731L38.1201 13.5173C38.6485 13.7565 38.8813 14.3749 38.6385 14.8973C38.3958 15.4185 37.7713 15.6475 37.2409 15.4084L35.1746 14.4704L34.1881 15.472L34.6283 17.8731L35.8228 18.4909L37.495 16.966C37.5963 16.8698 37.7155 16.7941 37.8461 16.7441C37.9767 16.6941 38.1161 16.6705 38.2559 16.6744C38.3957 16.6783 38.5334 16.71 38.6609 16.7671C38.7885 16.8244 38.9035 16.9061 38.9993 17.0079C39.4001 17.4365 39.3655 18.1075 38.9229 18.4933V18.4952L38.9217 18.4964L36.7056 20.5184C36.5453 20.6647 36.3436 20.758 36.1284 20.7864C35.9133 20.8148 35.6947 20.7768 35.502 20.6773L34.0281 19.9115L29.1848 20.6743C28.8502 21.4847 28.2965 22.1388 27.5241 22.6363L22.8651 25.6461L30.9759 35.3375H37.7885C37.9256 35.3375 38.037 35.4489 38.037 35.5861V37.573C38.0369 37.71 37.9255 37.821 37.7885 37.821H10.9673C10.8303 37.821 10.7189 37.71 10.7188 37.573V35.5861C10.7188 35.4489 10.8302 35.3375 10.9673 35.3375H18.7652L12.8639 27.7161C12.6335 27.478 12.43 27.215 12.257 26.9327V26.9309C10.8657 24.6512 11.7695 21.6849 14.2033 20.5415L22.7712 15.278C23.8673 14.6027 25.0374 14.4353 26.2817 14.776C26.6136 14.8656 26.9216 14.9835 27.2052 15.1295L32.3928 14.3128L34.1809 12.4962C34.3331 12.3414 34.5293 12.2372 34.7429 12.1973ZM18.938 28.1793C18.3138 28.6523 17.5781 28.9574 16.8019 29.0651L21.6592 35.3375H27.9964L20.931 26.8933L18.938 28.1793ZM16.1647 22.3732C15.8607 22.3732 15.5781 22.4241 15.3177 22.526L14.6786 22.9195L14.564 23.0274C14.1222 23.4637 13.9014 23.9906 13.9013 24.6081C13.9013 24.9868 13.984 25.3321 14.1499 25.6437L14.5998 26.2221C15.0336 26.6361 15.5554 26.843 16.1647 26.843C16.7902 26.8429 17.3231 26.6251 17.763 26.1887C18.2043 25.7523 18.4251 25.2251 18.4251 24.6081C18.425 24.2586 18.3547 23.9382 18.2147 23.647L18.1565 23.581H18.1589L18.174 23.5676C18.0693 23.3749 17.9323 23.195 17.763 23.028C17.321 22.5916 16.7882 22.3732 16.1647 22.3732ZM25.673 16.963C25.0746 16.7994 24.5115 16.8793 23.9838 17.2031L18.3565 20.6609C19.0858 21.058 19.6951 21.6437 20.1112 22.3544L21.393 23.8853V23.8878L21.3942 23.8884L26.2678 20.7385C26.7233 20.4447 27.0198 20.0378 27.1579 19.5186C27.2966 18.9994 27.2418 18.5012 26.993 18.0247C26.7101 17.4804 26.27 17.1266 25.673 16.963ZM29.1066 17.1291C29.2955 17.5227 29.4216 17.9231 29.4855 18.3302V18.329L32.2976 17.8876L32.0727 16.6629L29.1066 17.1291Z" fill="white"/>
</svg>
