<svg width="50" height="50" viewBox="0 0 50 50" fill="none" xmlns="http://www.w3.org/2000/svg">
<rect width="50" height="50" rx="5" fill="#3374DE"/>
<path d="M14.9219 11.2109C16.4264 11.2109 18.4887 11.2503 20.7141 11.4093C22.9347 11.5679 25.345 11.8476 27.5366 12.3346C29.6974 12.8148 31.7838 13.5255 33.2501 14.6252C36.2067 16.8428 37.1774 20.9293 37.4939 24.0942C37.6574 25.7289 37.6571 27.234 37.6166 28.3276C37.5963 28.8757 37.5654 29.324 37.5397 29.6381C37.5268 29.795 37.5154 29.9189 37.5067 30.0049C37.5024 30.0479 37.4983 30.0819 37.4957 30.1056C37.4945 30.1172 37.4934 30.1263 37.4927 30.1331C37.4923 30.1364 37.4923 30.1395 37.4921 30.1416C37.492 30.1425 37.4915 30.1434 37.4915 30.144V30.1453C37.4899 30.1455 37.4472 30.1408 36.25 30L35.0085 29.8541C35.0086 29.8536 35.009 29.8525 35.0092 29.8511C35.0095 29.8476 35.0101 29.8416 35.011 29.8334C35.0128 29.8166 35.0153 29.7902 35.0189 29.7546C35.0261 29.6832 35.0367 29.5748 35.0482 29.4342C35.0713 29.1526 35.099 28.7413 35.1178 28.2349C35.1554 27.2191 35.1551 25.8335 35.0061 24.3433C34.6976 21.2583 33.7931 18.1572 31.7499 16.6248C30.7162 15.8496 29.0524 15.2321 26.9946 14.7748C24.9676 14.3243 22.6902 14.0571 20.5359 13.9032C18.3863 13.7497 16.3861 13.7109 14.9219 13.7109C14.4881 13.7109 14.102 13.7147 13.7738 13.7195C13.7836 14.0468 13.7972 14.432 13.8171 14.8645C13.8845 16.3267 14.0188 18.3238 14.2871 20.47C14.556 22.6209 14.9558 24.8936 15.5457 26.9159C16.143 28.964 16.9008 30.6311 17.8156 31.6766C19.7363 33.8717 22.5384 34.887 24.989 35.3326C26.1996 35.5527 27.2851 35.6268 28.0664 35.6451C28.456 35.6543 28.7675 35.6494 28.9777 35.6427C29.0825 35.6394 29.162 35.6358 29.2133 35.6329C29.2389 35.6315 29.2577 35.63 29.2688 35.6293L29.2798 35.6287L29.4702 38.1213H29.469C29.4682 38.1214 29.467 38.1219 29.4659 38.1219C29.464 38.1221 29.4615 38.1217 29.4586 38.1219C29.4525 38.1224 29.4442 38.1231 29.4342 38.1238C29.4143 38.1251 29.3867 38.1267 29.3518 38.1287C29.2819 38.1325 29.1827 38.1375 29.057 38.1415C28.8058 38.1495 28.4482 38.1543 28.0078 38.1439C27.129 38.1232 25.9096 38.041 24.5422 37.7924C21.8367 37.3005 18.3887 36.128 15.9344 33.3234C14.6618 31.8689 13.7788 29.7857 13.1458 27.6154C12.5052 25.419 12.0846 23.004 11.8066 20.78C11.528 18.5512 11.389 16.4858 11.3196 14.9792C11.2849 14.2253 11.2673 13.6092 11.2585 13.1799C11.2542 12.9654 11.2523 12.7972 11.2512 12.6819C11.2507 12.6242 11.2501 12.5794 11.25 12.5488V12.5006C11.25 12.5003 11.25 12.5 12.5 12.5C12.4505 11.3113 12.4486 11.254 12.4487 11.2512H12.4518C12.454 11.2511 12.4575 11.2508 12.4615 11.2506C12.4696 11.2503 12.4813 11.25 12.4963 11.2494C12.5267 11.2483 12.5713 11.2464 12.6288 11.2445C12.7436 11.2407 12.9111 11.2361 13.125 11.2311C13.5534 11.2211 14.1688 11.2109 14.9219 11.2109ZM12.5 12.5L11.25 12.5006V11.3013L12.4487 11.2512L12.5 12.5Z" fill="white"/>
<path d="M21.1493 17.6343C21.1498 17.6353 21.151 17.6373 21.1523 17.6404C21.1551 17.6468 21.1597 17.6577 21.1664 17.6727C21.1797 17.7028 21.201 17.7497 21.2299 17.8125C21.2876 17.9383 21.3766 18.1276 21.4972 18.371C21.7385 18.8578 22.1062 19.5609 22.6044 20.4095C23.6023 22.1092 25.1164 24.3798 27.1777 26.662C29.2504 28.9567 32.0098 31.4128 34.2761 33.3117C35.4045 34.2572 36.4015 35.0567 37.1155 35.6195C37.4723 35.9007 37.758 36.1227 37.9541 36.2738C38.0521 36.3493 38.128 36.4072 38.1787 36.4459C38.2039 36.4651 38.2229 36.4797 38.2355 36.4892C38.2417 36.494 38.2465 36.4973 38.2495 36.4996C38.251 36.5008 38.2525 36.5015 38.2532 36.5021L38.2538 36.5027L36.7462 38.4973C36.7459 38.4971 36.7449 38.4965 36.7444 38.4961C36.7434 38.4953 36.742 38.4938 36.7401 38.4924C36.7364 38.4896 36.7312 38.4855 36.7242 38.4802C36.7102 38.4695 36.6895 38.4537 36.6626 38.4332C36.6089 38.3923 36.53 38.3323 36.4288 38.2544C36.2261 38.0982 35.9324 37.8705 35.5676 37.583C34.8384 37.0082 33.822 36.1928 32.6709 35.2283C30.378 33.3071 27.5125 30.7629 25.3223 28.338C23.1207 25.9005 21.51 23.4833 20.4486 21.6754C19.9172 20.7703 19.5217 20.0147 19.2572 19.4812C19.1249 19.2144 19.0251 19.0028 18.9575 18.8556C18.9238 18.782 18.8979 18.7244 18.88 18.6841C18.8711 18.664 18.8642 18.6479 18.8593 18.6365C18.8568 18.6309 18.8546 18.6265 18.8531 18.623C18.8524 18.6213 18.8518 18.6193 18.8513 18.6181L18.8507 18.6169L21.1493 17.6343Z" fill="white"/>
<path d="M28.1213 19.4708L27.4963 27.5958L25.0037 27.4042L25.6287 19.2792L28.1213 19.4708Z" fill="white"/>
<path d="M26.3745 26.2561L26.1255 28.7439L19.8755 28.1189L20.1245 25.6311L26.3745 26.2561Z" fill="white"/>
</svg>
