<svg width="50" height="50" viewBox="0 0 50 50" fill="none" xmlns="http://www.w3.org/2000/svg">
<rect width="50" height="50" rx="5" fill="#3374DE"/>
<path fill-rule="evenodd" clip-rule="evenodd" d="M23.9545 14.824C23.9545 14.1517 24.4995 13.6067 25.1719 13.6067C25.8442 13.6067 26.3893 14.1517 26.3893 14.824C26.3893 15.4964 25.8442 16.0414 25.1719 16.0414C24.4995 16.0414 23.9545 15.4964 23.9545 14.824ZM18.2397 18.3978L21.9488 16.5432C22.4248 17.4336 23.2589 18.1038 24.2587 18.3611V21.2431L22.0436 22.4737L18.4256 20.3029C18.4589 20.1048 18.4762 19.9012 18.4762 19.6936C18.4762 19.2373 18.3925 18.8005 18.2397 18.3978ZM21.2154 24.1063L17.672 21.9803C17.1858 22.5849 16.5111 23.0315 15.7371 23.2307V27.113C16.5111 27.3122 17.1858 27.7588 17.672 28.3635L21.2154 26.2374V24.1063ZM22.0436 27.8701L18.4256 30.0408C18.4589 30.239 18.4762 30.4425 18.4762 30.6501C18.4762 31.1064 18.3926 31.5431 18.2397 31.9458L21.9489 33.8004C22.4249 32.91 23.2589 32.24 24.2587 31.9826V29.1007L22.0436 27.8701ZM26.0848 29.1008V31.9826C27.0607 32.2337 27.8787 32.878 28.36 33.7367L32.0311 31.7342C31.9248 31.3917 31.8675 31.0276 31.8675 30.6501C31.8675 30.4426 31.8848 30.2391 31.9181 30.041L28.3 27.8701L26.0848 29.1008ZM29.1284 26.2376L32.6717 28.3636C33.1578 27.7589 33.8326 27.3123 34.6067 27.113V23.2307C33.8326 23.0315 33.1578 22.5849 32.6717 21.9802L29.1284 24.1061L29.1284 26.2376ZM28.3 22.4736L31.9181 20.3028C31.8848 20.1047 31.8675 19.9012 31.8675 19.6936C31.8675 19.2373 31.9512 18.8005 32.1041 18.3978L28.3949 16.5432C27.9189 17.4337 27.0847 18.1039 26.0848 18.3612V21.2429L28.3 22.4736ZM21.5213 35.6282L17.1676 33.4513C16.5334 33.9825 15.7161 34.3023 14.824 34.3023C12.807 34.3023 11.1719 32.6672 11.1719 30.6501C11.1719 28.9484 12.3358 27.5184 13.911 27.113V23.2307C12.3358 22.8253 11.1719 21.3954 11.1719 19.6936C11.1719 17.6766 12.807 16.0414 14.824 16.0414C15.716 16.0414 16.5333 16.3612 17.1675 16.8923L21.5213 14.7154C21.5788 12.7486 23.1912 11.1719 25.1719 11.1719C27.1526 11.1719 28.765 12.7486 28.8225 14.7154L33.1763 16.8923C33.8105 16.3612 34.6278 16.0414 35.5197 16.0414C37.5367 16.0414 39.1719 17.6766 39.1719 19.6936C39.1719 21.3954 38.008 22.8253 36.4327 23.2307V27.113C38.008 27.5184 39.1719 28.9484 39.1719 30.6501C39.1719 32.6672 37.5367 34.3023 35.5197 34.3023C34.5401 34.3023 33.6505 33.9166 32.9946 33.2887L28.8238 35.5637C28.8002 37.5605 27.1742 39.1719 25.1719 39.1719C23.1911 39.1719 21.5786 37.595 21.5213 35.6282ZM25.1719 34.3023C24.4995 34.3023 23.9545 34.8474 23.9545 35.5197C23.9545 36.192 24.4995 36.7371 25.1719 36.7371C25.8442 36.7371 26.3893 36.192 26.3893 35.5197C26.3893 34.8474 25.8442 34.3023 25.1719 34.3023ZM13.6067 19.6936C13.6067 19.0213 14.1517 18.4762 14.824 18.4762C15.4964 18.4762 16.0414 19.0213 16.0414 19.6936C16.0414 20.366 15.4964 20.911 14.824 20.911C14.1517 20.911 13.6067 20.366 13.6067 19.6936ZM35.5197 18.4762C34.8474 18.4762 34.3023 19.0213 34.3023 19.6936C34.3023 20.366 34.8474 20.911 35.5197 20.911C36.192 20.911 36.7371 20.366 36.7371 19.6936C36.7371 19.0213 36.192 18.4762 35.5197 18.4762ZM34.3023 30.6501C34.3023 29.9778 34.8474 29.4327 35.5197 29.4327C36.192 29.4327 36.7371 29.9778 36.7371 30.6501C36.7371 31.3225 36.192 31.8675 35.5197 31.8675C34.8474 31.8675 34.3023 31.3225 34.3023 30.6501ZM14.824 29.4327C14.1517 29.4327 13.6067 29.9778 13.6067 30.6501C13.6067 31.3225 14.1517 31.8675 14.824 31.8675C15.4964 31.8675 16.0414 31.3225 16.0414 30.6501C16.0414 29.9778 15.4964 29.4327 14.824 29.4327ZM23.6501 25.9773V24.3665L25.1719 23.521L26.6936 24.3665V25.9773L25.1719 26.8227L23.6501 25.9773Z" fill="white"/>
</svg>
