<svg width="50" height="50" viewBox="0 0 50 50" fill="none" xmlns="http://www.w3.org/2000/svg">
<rect width="50" height="50" rx="5" fill="#3374DE"/>
<path fill-rule="evenodd" clip-rule="evenodd" d="M26.6625 20.7887C26.2754 20.8329 26.1314 20.9052 26.0431 20.9689C25.9547 21.0326 25.8406 21.1463 25.6762 21.4996C25.4987 21.8813 25.3217 22.4063 25.045 23.2364L22.5027 30.8632C22.3412 31.3479 21.8942 31.6801 21.3836 31.6951C20.8729 31.7101 20.4072 31.4047 20.2175 30.9304L18.3399 26.2365L17.2559 26.9593C16.9762 27.1458 16.5982 27.0702 16.4117 26.7905L15.7364 25.7776C15.5499 25.4979 15.6255 25.12 15.9052 24.9335L16.9893 24.2106C17.0047 24.2004 17.0204 24.1899 17.0361 24.1794C17.2824 24.015 17.5642 23.827 17.8238 23.703C18.1297 23.5569 18.6097 23.3966 19.1679 23.5699C19.7259 23.7433 20.0312 24.1474 20.2006 24.4412C20.3443 24.6906 20.47 25.0053 20.5799 25.2805C20.5869 25.2979 20.5938 25.3152 20.6006 25.3322L21.2439 26.9404L22.7352 22.4665C22.7419 22.4462 22.7486 22.4261 22.7553 22.406C23.0059 21.6542 23.2254 20.9953 23.4686 20.4726C23.7315 19.9075 24.0701 19.3896 24.6194 18.9937C25.1687 18.5978 25.7671 18.4404 26.3863 18.3697C26.9591 18.3043 27.6536 18.3043 28.4459 18.3043L33.5217 18.3043C33.8579 18.3043 34.1304 18.5769 34.1304 18.913V20.1304C34.1304 20.4666 33.8579 20.7391 33.5217 20.7391L28.5097 20.7391C27.6348 20.7391 27.0808 20.741 26.6625 20.7887Z" fill="white"/>
<path fill-rule="evenodd" clip-rule="evenodd" d="M26.574 25.3566C27.0494 24.8811 27.8202 24.8811 28.2956 25.3566L29.2609 26.3218L30.2261 25.3566C30.7016 24.8811 31.4724 24.8811 31.9478 25.3566C32.4232 25.832 32.4232 26.6028 31.9478 27.0782L30.9825 28.0435L31.9478 29.0087C32.4232 29.4842 32.4232 30.255 31.9478 30.7304C31.4724 31.2058 30.7016 31.2058 30.2261 30.7304L29.2609 29.7651L28.2956 30.7304C27.8202 31.2058 27.0494 31.2058 26.574 30.7304C26.0985 30.255 26.0985 29.4842 26.574 29.0087L27.5392 28.0435L26.574 27.0782C26.0985 26.6028 26.0985 25.832 26.574 25.3566Z" fill="white"/>
<path fill-rule="evenodd" clip-rule="evenodd" d="M24.3002 11H25.6998C28.4919 11 30.7113 11 32.45 11.2337C34.2425 11.4747 35.7053 11.9841 36.8606 13.1394C38.0159 14.2947 38.5253 15.7575 38.7663 17.55C39 19.2887 39 21.5081 39 24.3003V25.6997C39 28.4919 39 30.7113 38.7663 32.45C38.5253 34.2425 38.0159 35.7053 36.8606 36.8606C35.7053 38.0159 34.2425 38.5253 32.45 38.7663C30.7113 39 28.4919 39 25.6997 39H24.3003C21.5081 39 19.2887 39 17.55 38.7663C15.7575 38.5253 14.2947 38.0159 13.1394 36.8606C11.9841 35.7053 11.4747 34.2425 11.2337 32.45C11 30.7113 11 28.4919 11 25.6998V24.3002C11 21.5081 11 19.2887 11.2337 17.55C11.4747 15.7575 11.9841 14.2947 13.1394 13.1394C14.2947 11.9841 15.7575 11.4747 17.55 11.2337C19.2887 11 21.5081 11 24.3002 11ZM17.8745 13.6468C16.3519 13.8515 15.4886 14.2335 14.861 14.861C14.2335 15.4886 13.8515 16.3519 13.6468 17.8745C13.4374 19.4321 13.4348 21.4875 13.4348 24.3913V25.6087C13.4348 28.5125 13.4374 30.5679 13.6468 32.1255C13.8515 33.6481 14.2335 34.5114 14.861 35.139C15.4886 35.7665 16.3519 36.1485 17.8745 36.3532C19.4321 36.5626 21.4875 36.5652 24.3913 36.5652H25.6087C28.5125 36.5652 30.5679 36.5626 32.1255 36.3532C33.6481 36.1485 34.5114 35.7665 35.139 35.139C35.7665 34.5114 36.1485 33.6481 36.3532 32.1255C36.5626 30.5679 36.5652 28.5125 36.5652 25.6087V24.3913C36.5652 21.4875 36.5626 19.4321 36.3532 17.8745C36.1485 16.3519 35.7665 15.4886 35.139 14.861C34.5114 14.2335 33.6481 13.8515 32.1255 13.6468C30.5679 13.4374 28.5125 13.4348 25.6087 13.4348H24.3913C21.4875 13.4348 19.4321 13.4374 17.8745 13.6468Z" fill="white"/>
</svg>
