<svg width="50" height="50" viewBox="0 0 50 50" fill="none" xmlns="http://www.w3.org/2000/svg">
<rect width="50" height="50" rx="5" fill="#3374DE"/>
<path d="M24.5519 13.9303C28.2093 10.8094 33.6652 11.2989 36.7284 15.0112C39.7815 18.7115 39.3108 24.225 35.6658 27.3355L25.432 36.069C21.7746 39.1899 16.3187 38.7004 13.2555 34.9881C10.2025 31.2878 10.6731 25.7743 14.3181 22.6638L24.5519 13.9303ZM15.941 24.5657C13.3391 26.786 12.9947 30.744 15.1836 33.3969C17.3622 36.0374 21.2195 36.3768 23.8091 34.1671L28.006 30.6251L19.7711 21.3368L15.941 24.5657ZM34.8003 16.6024C32.6217 13.9619 28.7643 13.6225 26.1748 15.8322L21.6736 19.7133L29.9078 29.0022L34.0428 25.4336C36.6448 23.2132 36.9892 19.2553 34.8003 16.6024Z" fill="white"/>
</svg>
