<svg width="50" height="50" viewBox="0 0 50 50" fill="none" xmlns="http://www.w3.org/2000/svg">
<rect width="50" height="50" rx="5" fill="#3374DE"/>
<path fill-rule="evenodd" clip-rule="evenodd" d="M19.375 17.5C19.375 14.0482 22.1732 11.25 25.625 11.25C29.0768 11.25 31.8749 14.0482 31.8749 17.5C31.8749 20.9518 29.0768 23.75 25.625 23.75C22.1732 23.75 19.375 20.9518 19.375 17.5ZM25.625 13.75C23.5539 13.75 21.875 15.4289 21.875 17.5C21.875 19.5711 23.5539 21.25 25.625 21.25C27.6961 21.25 29.3749 19.5711 29.3749 17.5C29.3749 15.4289 27.6961 13.75 25.625 13.75Z" fill="white"/>
<path fill-rule="evenodd" clip-rule="evenodd" d="M30.6786 23.8587L31.9835 22.5539L35.7983 26.3687L36.7734 25.3936C37.0514 25.1156 37.5191 25.2797 37.5493 25.6657L37.825 29.1966C37.8473 29.4809 37.6057 29.7225 37.3213 29.7003L33.7904 29.4246C33.4044 29.3944 33.2403 28.9267 33.5183 28.6487L34.4934 27.6735L30.6786 23.8587Z" fill="white"/>
<path fill-rule="evenodd" clip-rule="evenodd" d="M11.875 16.1426C11.875 13.9154 14.5678 12.7999 16.1428 14.3748L35.9375 34.1696C37.5124 35.7445 36.397 38.4374 34.1697 38.4374H15.625C13.5539 38.4374 11.875 36.7584 11.875 34.6874L11.875 16.1426ZM34.1697 35.9374L14.375 16.1426L14.375 34.6874C14.375 35.3777 14.9346 35.9374 15.625 35.9374H34.1697Z" fill="white"/>
</svg>
